<?xml version="1.0" encoding="UTF-8"?>
<!DOCTYPE svg PUBLIC "-//W3C//DTD SVG 1.1//EN" "http://www.w3.org/Graphics/SVG/1.1/DTD/svg11.dtd">
<!-- Creator: CorelDRAW X5 -->
<svg xmlns="http://www.w3.org/2000/svg" xml:space="preserve" width="270px" style="shape-rendering:geometricPrecision; text-rendering:geometricPrecision; image-rendering:optimizeQuality; fill-rule:evenodd; clip-rule:evenodd"
viewBox="0 0 7.73819 1.7245"
 xmlns:xlink="http://www.w3.org/1999/xlink">
 <defs>
  <style type="text/css">
   <![CDATA[
    .fil1 {fill:#ffffff}
    .fil0 {fill:#ffffff;fill-rule:nonzero}
   ]]>
  </style>
 </defs>
 <g id="Layer_x0020_1">
  <metadata id="CorelCorpID_0Corel-Layer"/>
  <g id="_291266208">
   <path id="_291267888" class="fil0" d="M1.09652 1.20178c0,0.102629 -0.0528352,0.182596 -0.140351,0.182596 -0.0558766,0 -0.0905693,-0.0482914 -0.0905693,-0.11771 0,-0.143372 0.176591,-0.150892 0.23092,-0.152419l0 0.087532zm0 0.247487l0.150912 0 0 -0.458758c0,-0.149398 -0.0332067,-0.259567 -0.247483,-0.259567 -0.217334,0 -0.267123,0.105617 -0.283719,0.205233l0.179559 0c0,-0.0664053 0.00604612,-0.153925 0.10565,-0.153925 0.0950804,0 0.0950804,0.10565 0.0950804,0.200698l0 0.0769788c-0.0965705,0.00302102 -0.396905,0.0196203 -0.396905,0.232382 0,0.0890588 0.0845028,0.17357 0.20222,0.17357 0.116199,0 0.167495,-0.0739415 0.194684,-0.105666l0 0.0890547z"/>
   <path id="_291268008" class="fil0" d="M1.40842 1.44927l0.150937 0 0 -0.718325 -0.267119 0.0482914 0 0.0301857c0.0920676,0.00301285 0.116183,0.0286629 0.116183,0.134288l0 0.505559z"/>
   <path id="_291268104" class="fil0" d="M1.74456 1.44927l0.150904 0 0 -0.368225c0,-0.107152 0.0860378,-0.247491 0.185613,-0.247491 0.101143,0 0.101143,0.105642 0.101143,0.22487l0 0.390846 0.150908 0 0 -0.505559c0,-0.116195 -0.0452663,-0.212765 -0.182592,-0.212765 -0.149418,0 -0.22941,0.140339 -0.252047,0.193153l-0.0030251 0 0 -0.193153 -0.271622 0.0482914 0 0.0301857c0.0950968,0.00301285 0.120718,0.0286629 0.120718,0.134288l0 0.505559z"/>
   <path id="_291268176" class="fil0" d="M2.82795 1.39344c-0.0180894,0.00453561 -0.0377178,0.00601754 -0.0558235,0.00601754 -0.116207,0 -0.123756,-0.0467605 -0.123756,-0.152406l0 -0.43915 0.197669 0 0 -0.0603591 -0.197669 0 0 -0.253529 -0.150892 0.134309 0 0.11922 -0.117722 0 0 0.0603591 0.117722 0 0 0.463302c0,0.172035 0.0844987,0.194676 0.229352,0.194676 0.0331985,0 0.0679076,-0.00603796 0.101118,-0.0120677l0 -0.0603714z"/>
   <path id="_291268224" class="fil0" d="M3.02197 0.958814c0,-0.0573544 0.0317125,-0.176562 0.144899,-0.176562 0.131288,0 0.134301,0.141845 0.134301,0.176562l-0.279199 0zm0.416521 0.399913c-0.0256501,0.0105654 -0.0784771,0.0256501 -0.141833,0.0256501 -0.212831,0 -0.274688,-0.214296 -0.274688,-0.365204l0.430116 0c0,-0.101106 -0.0211145,-0.28823 -0.279195,-0.28823 -0.202204,0 -0.316917,0.104127 -0.316917,0.342575 0,0.25201 0.138865,0.392361 0.369744,0.392361 0.104139,0 0.184098,-0.0301898 0.212774,-0.0407715l0 -0.0663808z"/>
   <path id="_291268296" class="fil0" d="M5.19057 0.623795l0.172088 0.440648 -0.333549 0 0.161461 -0.440648zm-0.393867 0.825473l0.0935985 0 0.113158 -0.313872 0.384821 0 0.113186 0.313872 0.156966 0 -0.368201 -1.01563 -0.283735 0 0 0.0332026c0.0603306,0.00905081 0.116211,0.0105736 0.116211,0.0709245 0,0.0105776 -0.0166197,0.0633924 -0.0256787,0.0890466l-0.300326 0.822452z"/>
   <path id="_291268368" class="fil0" d="M5.73748 1.44927l0.150904 0 0 -0.368225c0,-0.107152 0.0860092,-0.247491 0.185601,-0.247491 0.101159,0 0.101159,0.105642 0.101159,0.22487l0 0.390846 0.150904 0 0 -0.505559c0,-0.116195 -0.0452785,-0.212765 -0.182645,-0.212765 -0.149393,0 -0.229381,0.140339 -0.252006,0.193153l-0.00301285 0 0 -0.193153 -0.271634 0.0482914 0 0.0301857c0.0950968,0.00301285 0.120731,0.0286629 0.120731,0.134288l0 0.505559z"/>
   <path id="_291268440" class="fil0" d="M6.48584 1.44927l0.150904 0 0 -0.368225c0,-0.107152 0.0860051,-0.247491 0.185613,-0.247491 0.101114,0 0.101114,0.105642 0.101114,0.22487l0 0.390846 0.15092 0 0 -0.505559c0,-0.116195 -0.0452663,-0.212765 -0.182633,-0.212765 -0.149377,0 -0.229381,0.140339 -0.251994,0.193153l-0.00302102 0 0 -0.193153 -0.271639 0.0482914 0 0.0301857c0.0950968,0.00301285 0.120735,0.0286629 0.120735,0.134288l0 0.505559z"/>
   <path id="_291268656" class="fil0" d="M7.30814 0.958814c0,-0.0573544 0.0316962,-0.176562 0.144882,-0.176562 0.131259,0 0.134301,0.141845 0.134301,0.176562l-0.279183 0zm0.430054 0.0603591l0 -0.00631556c-0.000934883,-0.102372 -0.0263523,-0.281914 -0.279122,-0.281914 -0.20222,0 -0.316962,0.104127 -0.316962,0.342575 0,0.25201 0.138865,0.392361 0.369756,0.392361 0.104143,0 0.184131,-0.0301898 0.212778,-0.0407715l0 -0.0663808c-0.0256215,0.0105654 -0.0784771,0.0256501 -0.141845,0.0256501 -0.21279,0 -0.27466,-0.214296 -0.27466,-0.365204l0.430054 0z"/>
   <path id="_291268584" class="fil0" d="M4.13689 0.659517c0,0 -0.0122433,0.00195958 -0.0354317,0.00226168 -0.112464,0.00148601 -0.145417,-0.0332761 -0.251618,-0.0332761 -0.121318,0 -0.19366,0.0579301 -0.264976,0.0579301 -0.0785342,0 -0.141041,-0.0348805 -0.218595,-0.037428 -0.0543947,-0.00177179 -0.115056,0.0240579 -0.115056,0.0240579 0,0 0.0606612,-0.0178158 0.115921,-0.0178158 0.056195,0 0.148124,0.0490956 0.224874,0.0490956 0.0874054,0 0.129226,-0.0416002 0.243474,-0.0416002 0.0687118,0 0.180747,0.046491 0.252153,0.046491 0.0195999,0 0.0325454,-0.000420493 0.0325454,-0.000420493l0.0167095 -0.0492957z"/>
   <path id="_291268752" class="fil0" d="M4.12018 0.711478c-0.107034,0.0249561 -0.181106,-0.027724 -0.286413,-0.027724 -0.106136,0 -0.167707,0.0571299 -0.25337,0.0571299 -0.107912,0 -0.18109,-0.0553418 -0.264045,-0.0276301 0.0945497,-0.0152439 0.171541,0.0422004 0.269646,0.0420412 0.0954601,-0.000155133 0.127013,-0.0427923 0.240281,-0.0428576 0.0928351,-6.12369e-005 0.20736,0.0614083 0.27695,0.0516186l0.0169504 -0.052578z"/>
   <path id="_291268608" class="fil0" d="M4.10146 0.76851c-0.0695324,0.0191753 -0.164152,-0.034754 -0.267691,-0.034754 -0.0954642,0 -0.18198,0.0649846 -0.256913,0.0649846 -0.0702101,0 -0.1206,-0.0346846 -0.183756,-0.0346846 0.0589344,0.00495202 0.126279,0.0464298 0.190798,0.0464298 0.0825391,0 0.149667,-0.0507899 0.241677,-0.0507899 0.0971543,0 0.220551,0.0614777 0.26409,0.0543906l0.0117942 -0.0455766z"/>
   <path id="_291268824" class="fil0" d="M4.08634 0.824918c-0.0696059,0.0105123 -0.163433,-0.0402612 -0.25081,-0.0402612 -0.102066,0 -0.196297,0.0666992 -0.249814,0.0666992 -0.0535169,0 -0.0811715,-0.0292753 -0.128495,-0.0266095 0.0487364,0.00171463 0.0768482,0.0339538 0.135885,0.0339538 0.0587588,0 0.14487,-0.0479158 0.230353,-0.0479158 0.0775585,0 0.201314,0.0693079 0.249875,0.0566278l0.0130067 -0.0424943z"/>
   <polygon id="_291269040" class="fil1" points="4.41178,0.861513 4.12509,0 4.36538,0.862325 "/>
   <polygon id="_291268968" class="fil1" points="4.35309,0.862534 4.09259,0.113762 4.3069,0.863346 "/>
   <polygon id="_291268920" class="fil1" points="4.29355,0.86357 4.05798,0.221388 4.25016,0.86433 "/>
   <polygon id="_291268944" class="fil1" points="4.23887,0.864522 4.01545,0.302147 4.19445,0.865306 "/>
   <polygon id="_291269208" class="fil1" points="3.86419,0.871074 3.60732,1.7245 3.90174,0.898361 "/>
   <polygon id="_291269280" class="fil1" points="3.91168,0.905567 3.70175,1.65318 3.94906,0.932723 "/>
   <polygon id="_291269352" class="fil1" points="3.95987,0.94057 3.79418,1.58806 3.99495,0.966061 "/>
   <polygon id="_291269424" class="fil1" points="4.00406,0.972715 3.88714,1.51711 4.04008,0.998843 "/>
   <polygon id="_291269496" class="fil1" points="3.96807,1.20997 4.70208,1.70762 4.00518,1.18202 "/>
   <polygon id="_291269568" class="fil1" points="4.01497,1.17465 4.66152,1.59647 4.05189,1.14684 "/>
   <polygon id="_291269640" class="fil1" points="4.06249,1.13882 4.62629,1.48905 4.09714,1.11271 "/>
   <polygon id="_291269712" class="fil1" points="4.10615,1.1059 4.61319,1.39871 4.14168,1.07915 "/>
   <polygon id="_291269784" class="fil1" points="4.31203,1.20277 5.02826,0.658766 4.2977,1.15861 "/>
   <polygon id="_291269856" class="fil1" points="4.2939,1.14695 4.89734,0.662538 4.27964,1.10299 "/>
   <polygon id="_291269928" class="fil1" points="4.2755,1.0903 4.77834,0.660097 4.26211,1.04905 "/>
   <polygon id="_291270000" class="fil1" points="4.25863,1.03831 4.65496,0.659256 4.24489,0.996018 "/>
   <path id="_291270072" class="fil0" d="M0.995193 0.542289c0,0.048618 -0.00434374,0.0979504 -0.0863236,0.0979504 -0.0638619,0 -0.0870747,-0.0301122 -0.0870747,-0.0841558l0 -0.116081c0,-0.0304715 -0.00108185,-0.0308511 -0.0362604,-0.0355623l0 -0.00798937 0.0761623 -0.00832821 0 0.14981c0,0.0413594 0,0.085254 0.0519003,0.085254 0.0554847,0 0.0554847,-0.0402694 0.0554847,-0.0768931l0 -0.154182 0.0261114 0 0 0.150177z"/>
   <path id="_291270144" class="fil0" d="M1.05396 0.514733c0,-0.0254174 -0.00616043,-0.0315615 -0.0290059,-0.0322922l0 -0.00725861 0.0652785 -0.0116064 0 0.046438 0.000722595 0c0.00546641,-0.0126964 0.0246662,-0.046438 0.0605918,-0.046438 0.0330026,0 0.0439068,0.0232088 0.0439068,0.0511573l0 0.121523 -0.0363012 0 0 -0.0939659c0,-0.0286589 0,-0.0540477 -0.0242784,-0.0540477 -0.0239599,0 -0.0446417,0.0337374 -0.0446417,0.0594977l0 0.0885158 -0.0362726 0 0 -0.121523z"/>
   <path id="_291270216" class="fil0" d="M1.24623 0.412063c0,-0.0123372 0.0101531,-0.0224903 0.0228454,-0.0224903 0.0123331,0 0.0232292,0.00978565 0.0232292,0.0224903 0,0.0126924 -0.0108961,0.0228495 -0.0236007,0.0228495 -0.0123209,0 -0.0224739,-0.0101572 -0.0224739,-0.0228495zm0.00398856 0.10267c0,-0.0254174 -0.0058175,-0.0315615 -0.0279363,-0.0322922l0 -0.00725861 0.0642171 -0.0116064 0 0.17268 -0.0362808 0 0 -0.121523z"/>
   <path id="_291270288" class="fil0" d="M1.34707 0.507458c-0.00907939,-0.0242865 -0.0130516,-0.0304551 -0.037726,-0.0326474l0 -0.00724228 0.0605796 0 0.0507735 0.127687 0.0493569 -0.127687 0.0206817 0 -0.0649478 0.168687 -0.0264992 0 -0.0522187 -0.128797z"/>
   <path id="_291270360" class="fil0" d="M1.60864 0.51835c0,-0.00833638 -0.000722595,-0.0424453 -0.0322922,-0.0424453 -0.0271892,0 -0.0348234,0.0286629 -0.0348234,0.0424453l0.0671156 0zm0.0330067 0.112088c-0.0069116,0.00254337 -0.0261114,0.00980198 -0.0511532,0.00980198 -0.0554928,0 -0.0888751,-0.0337374 -0.0888751,-0.0943252 0,-0.0573177 0.027577,-0.0823391 0.0761991,-0.0823391 0.0620003,0 0.0670993,0.0449805 0.0670993,0.0692834l-0.103392 0c0,0.0362686 0.0148765,0.0877892 0.0660338,0.0877892 0.0152357,0 0.0279118,-0.00362114 0.0340885,-0.00616451l0 0.0159542z"/>
   <path id="_291270432" class="fil0" d="M1.6859 0.514733c0,-0.0254174 -0.00580525,-0.0315615 -0.0286589,-0.0322922l0 -0.00725861 0.0649519 -0.0116064 0 0.0478831 0.000722595 0c0.00505408,-0.0166891 0.0163298,-0.0478831 0.0453357,-0.0478831 0.00652377,0 0.0134068,0.000734842 0.0195876,0.00180036l0 0.0344764c-0.00578893,-0.00181669 -0.0123454,-0.00436006 -0.0185058,-0.00436006 -0.0366278,0 -0.0471401,0.0286711 -0.0471401,0.054064l0 0.0866992 -0.036293 0 0 -0.121523z"/>
   <path id="_291270504" class="fil0" d="M1.90755 0.496945c-0.00545825,-0.00361706 -0.0228577,-0.0174198 -0.0431802,-0.0174198 -0.0116228,0 -0.0254051,0.00436006 -0.0254051,0.0199673 0,0.03446 0.0794569,0.0351826 0.0794569,0.0906877 0,0.0355419 -0.0293814,0.0500591 -0.0652989,0.0500591 -0.0221188,0 -0.0381057,-0.00434374 -0.0464298,-0.00652785l0 -0.0283037c0.0105409,0.00725453 0.027577,0.018865 0.0478872,0.018865 0.0228414,0 0.0311941,-0.0116105 0.0311941,-0.0242988 0,-0.03555 -0.0794446,-0.037726 -0.0794446,-0.0877892 0,-0.0261277 0.017775,-0.0486098 0.0605755,-0.0486098 0.0185058,0 0.0344641,0.00470707 0.0406449,0.00616859l0 0.0272014z"/>
   <path id="_291270576" class="fil0" d="M1.96087 0.412063c0,-0.0123372 0.0101531,-0.0224903 0.0228414,-0.0224903 0.0123413,0 0.0232129,0.00978565 0.0232129,0.0224903 0,0.0126924 -0.0108716,0.0228495 -0.0235599,0.0228495 -0.0123413,0 -0.0224943,-0.0101572 -0.0224943,-0.0228495zm0.00398856 0.10267c0,-0.0254174 -0.00578893,-0.0315615 -0.0279118,-0.0322922l0 -0.00725861 0.0641762 -0.0116064 0 0.17268 -0.0362645 0 0 -0.121523z"/>
   <path id="_291270648" class="fil0" d="M2.14445 0.637337c-0.00799345,0.00145744 -0.0163462,0.00290263 -0.0243396,0.00290263 -0.0347948,0 -0.0551295,-0.00544192 -0.0551295,-0.0467931l0 -0.111378 -0.0282874 0 0 -0.0145009 0.0282874 0 0 -0.0286629 0.0362645 -0.0322759 0 0.0609388 0.0475239 0 0 0.0145009 -0.0475239 0 0 0.105572c0,0.0253847 0.00182894,0.0366319 0.029753,0.0366319 0.00438048,0 0.00908755,-0.000355174 0.0134517,-0.00145335l0 0.0145172z"/>
   <path id="_291270720" class="fil0" d="M2.23401 0.393198c0.00182894,-0.00870788 0.00364563,-0.0185058 0.0174117,-0.0185058 0.0076342,0 0.0167095,0.0043519 0.0167095,0.0137824 0,0.00254337 -0.00327005,0.00836087 -0.005446,0.0119738l-0.0228699 0.0380934 -0.0152072 0 0.0094019 -0.0453439zm0.0352153 0.125152c0,-0.00833638 -0.000751172,-0.0424453 -0.0323045,-0.0424453 -0.0271933,0 -0.0348234,0.0286629 -0.0348234,0.0424453l0.0671279 0zm0.0329944 0.112088c-0.00689935,0.00254337 -0.0261114,0.00980198 -0.0511409,0.00980198 -0.0555214,0 -0.0888751,-0.0337374 -0.0888751,-0.0943252 0,-0.0573177 0.0275484,-0.0823391 0.0761705,-0.0823391 0.0620452,0 0.0671156,0.0449805 0.0671156,0.0692834l-0.103392 0c0,0.0362686 0.0148765,0.0877892 0.0660338,0.0877892 0.0152235,0 0.0279403,-0.00362114 0.0340885,-0.00616451l0 0.0159542z"/>
   <path id="_291270792" class="fil0" d="M0.0129822 1.42657l0 -0.190871 0.0331904 0c0.00905081,0.0603836 0.0221922,0.118416 0.0655194,0.127797 0.010349,0.00222494 -0.0987097,0.063074 -0.0987097,0.063074z"/>
   <path id="_291270864" class="fil0" d="M0.580958 0.444645l0 0.190879 -0.0321208 -0.00111043c-0.00906306,-0.0603632 -0.0215146,-0.113623 -0.0636863,-0.124752 -0.0102184,-0.00270667 0.0958071,-0.0650172 0.0958071,-0.0650172z"/>
   <path id="_291270936" class="fil0" d="M0.581011 0.44422c-0.0392243,-0.00756071 -0.137338,-0.027181 -0.241445,-0.027181 -0.212798,0 -0.339567,0.0950723 -0.339567,0.261081 0,0.318419 0.490475,0.29577 0.490475,0.540268 0,0.137322 -0.0935903,0.176558 -0.188634,0.176558 -0.120714,0 -0.174354,-0.0218207 -0.22113,-0.048965l-0.0671279 0.0806571c0.0317125,0.00755663 0.147916,0.0392406 0.264119,0.0392406 0.208238,0 0.378762,-0.0815022 0.378762,-0.297313 0,-0.322922 -0.490462,-0.301812 -0.490462,-0.534206 0,-0.099612 0.0648988,-0.146368 0.144886,-0.146368 0.117722,0 0.212284,0.0283731 0.253031,0.0479852l0.0170933 -0.0917573z"/>
  </g>
 </g>
</svg>
